<svg width="50" height="33" viewBox="0 0 50 33" fill="none" xmlns="http://www.w3.org/2000/svg">
<g clip-path="url(#clip0_353_73)">
<path d="M10.1635 4.94141C6.01274 8.04711 2.9093 12.3763 1.27734 17.3373L10.5573 20.1112C11.5466 17.3076 13.3083 14.8504 15.6335 13.031L10.1635 4.94141Z" fill="#CDDC39"/>
<path d="M25.1758 0L25.441 9.80257C28.3794 9.87953 31.2333 10.815 33.6599 12.4965L39.5499 4.7355C35.3591 1.68394 30.3357 0.0290195 25.1758 0Z" fill="#CDDC39"/>
<path d="M1.16645 17.6738C-0.388816 22.661 -0.388816 28.0131 1.16645 33.0003L10.28 29.7161C9.44363 26.8583 9.44363 23.8158 10.28 20.9581L1.16645 17.6738Z" fill="#CDDC39"/>
<path d="M24.8233 0C19.6634 0.0290195 14.64 1.68394 10.4492 4.7355L16.3392 12.4965C18.7659 10.8149 21.6201 9.87943 24.5586 9.80257L24.8233 0Z" fill="#CDDC39"/>
<path d="M48.5068 18.3297C49.8294 22.9055 49.8294 27.7698 48.5068 32.3456L40.3249 29.3968C41.0198 26.7361 41.0198 23.938 40.3249 21.2774L48.5068 18.3297ZM48.8323 17.6738L39.7188 20.9581C40.5552 23.8158 40.5552 26.8583 39.7188 29.7161L48.8323 33.0003C50.3876 28.0131 50.3876 22.661 48.8323 17.6738Z" fill="#1C1F30"/>
<path d="M39.8333 4.94141L34.3633 13.031C36.6884 14.8503 38.4501 17.3074 39.4393 20.1109L48.7193 17.337C47.0874 12.3761 43.9839 8.04708 39.8333 4.94141Z" fill="#CDDC39"/>
</g>
<defs>
<clipPath id="clip0_353_73">
<rect width="50" height="33" fill="white"/>
</clipPath>
</defs>
</svg>
