<svg xmlns="http://www.w3.org/2000/svg" xmlns:xlink="http://www.w3.org/1999/xlink" viewBox="0 0 897.3599 196"><defs><linearGradient id="a" x1="448.6802" y1="191" x2="448.6802" y2="5" gradientUnits="userSpaceOnUse"><stop offset="0" stop-color="#ffc400"/><stop offset="0.7" stop-color="#ffc400"/><stop offset="0.9" stop-color="#fff3d1"/><stop offset="1" stop-color="#ffc400"/></linearGradient><linearGradient id="b" x1="259.2336" y1="191" x2="259.2336" y2="5" gradientUnits="userSpaceOnUse"><stop offset="0"/><stop offset="0.7"/><stop offset="0.9" stop-color="#545046"/><stop offset="1"/></linearGradient></defs><path d="M64.7559,5c-14.3,0-28.063,11.7-30.5845,26L5.9591,191H832.6045c14.3,0,28.063-11.7,30.5845-26L891.4012,5Z" fill="url(#a)"/><path d="M419.5081,5H64.7559c-14.3,0-28.063,11.7-30.5845,26L5.9591,191H419.5082l93-93Z" fill="url(#b)"/><path d="M64.7559,5c-14.3,0-28.063,11.7-30.5845,26L5.9591,191H832.6045c14.3,0,28.063-11.7,30.5845-26L891.4012,5Z" fill="#ffc400"/><path d="M419.5081,5H64.7559c-14.3,0-28.063,11.7-30.5845,26L5.9591,191H419.5082l93-93Z"/><path d="M150.0852,29.3833l-6.5259,23.9292H119.4749L103.6658,167.5313l-32.3877,6L88.0872,53.3125H62.2937l3.2627-23.9292Z" fill="#fff"/><path d="M200.9343,59.3125l-8.5459,29.6787a25.9194,25.9194,0,0,0-7.1474-1.2432,12.8545,12.8545,0,0,0-10.877,5.4385q-4.0422,5.4405-7.4585,15.3828l-4.9721,34.962H131.7888l11.4986-82.9756h26.26l.1553,14.7617a34.061,34.061,0,0,1,10.1-12.897,21.2391,21.2391,0,0,1,12.8965-4.5063A24.1407,24.1407,0,0,1,200.9343,59.3125Z" fill="#fff"/><path d="M200.156,137.1606q-9.6365-9.4759-9.6338-26.4155a69.7348,69.7348,0,0,1,4.7393-25.6387A43.6549,43.6549,0,0,1,210.8,65.2173q10.798-7.768,27.8916-7.7695,17.091,0,26.8037,9.5561,9.7089,9.5567,9.7114,26.0274a69.7845,69.7845,0,0,1-4.7393,25.6381,44.6339,44.6339,0,0,1-15.5385,20.045q-10.8011,7.9248-28.0464,7.9248Q209.7874,146.6392,200.156,137.1606Zm41.1768-23.23a81.4663,81.4663,0,0,0,3.1074-22.919q0-6.06-2.02-8.7793-2.0208-2.7172-6.2154-2.7192-8.7033,0-11.809,10.333a77.6052,77.6052,0,0,0-3.1075,22.4531q0,6.5259,1.9419,9.4009,1.9417,2.877,6.1377,2.8745Q238.2251,124.5742,241.3328,113.93Z" fill="#fff"/><path d="M343.7288,60.4a35.622,35.622,0,0,1,12.4306,8.5459l-14.4507,17.248A19.2883,19.2883,0,0,0,328.346,80.6q-9.6366,0-13.5962,9.09a51.874,51.874,0,0,0-3.962,20.899q0,6.9924,2.7969,9.6342,2.7965,2.644,7.9243,2.6416a19.0174,19.0174,0,0,0,6.837-1.2431,46.3976,46.3976,0,0,0,7.9248-4.1953l10.8764,19.2675a50.3255,50.3255,0,0,1-29.9887,9.9449q-17.87,0-27.8916-9.9449-10.0218-9.9426-10.022-26.8818a61.0891,61.0891,0,0,1,5.1274-23.9292,48.3013,48.3013,0,0,1,16.16-20.2778q11.031-8.1578,27.6582-8.1577A40.3314,40.3314,0,0,1,343.7288,60.4Z" fill="#fff"/><path d="M417.2263,59.8564a64.8214,64.8214,0,0,1,17.8692,7.3809l-7.148,49.5679q-.3128,3.11-.31,3.8843a6.8334,6.8334,0,0,0,.7768,3.4965,6.012,6.012,0,0,0,2.9522,2.253l-8.7012,19.5786a30.5613,30.5613,0,0,1-13.6738-3.8848,18.2133,18.2133,0,0,1-8.2354-9.789A36.53,36.53,0,0,1,390.345,142.832a25.8337,25.8337,0,0,1-14.2954,3.8072q-13.0526,0-20.1221-9.0127-7.0722-9.01-7.07-24.7061a69.658,69.658,0,0,1,5.05-26.0268,48.4481,48.4481,0,0,1,16.16-21.0547q11.108-8.3914,28.3575-8.3911A77.4238,77.4238,0,0,1,417.2263,59.8564ZM383.9739,89.0688a63.3564,63.3564,0,0,0-4.1953,23.6963q0,6.9925,1.7871,9.4009a5.7569,5.7569,0,0,0,4.8945,2.4082q6.5259,0,11.9644-9.3232l5.2832-35.7383a24.8111,24.8111,0,0,0-6.5259-.9326Q388.168,78.58,383.9739,89.0688Z" fill="#fff"/><path d="M594.2009,137.1606q-9.6357-9.4759-9.6338-26.4155a69.7368,69.7368,0,0,1,4.7393-25.6387,43.6571,43.6571,0,0,1,15.5391-19.8891q10.7973-7.768,27.8906-7.7695,17.0917,0,26.8037,9.5561,9.7091,9.5567,9.7119,26.0274a69.7948,69.7948,0,0,1-4.7392,25.6381,44.6372,44.6372,0,0,1-15.5381,20.045q-10.8018,7.9248-28.0469,7.9248Q603.8327,146.6392,594.2009,137.1606Zm41.1768-23.23a81.4479,81.4479,0,0,0,3.1084-22.919q0-6.06-2.02-8.7793-2.0216-2.7172-6.2149-2.7192-8.7041,0-11.81,10.333a77.6052,77.6052,0,0,0-3.1075,22.4531q0,6.5259,1.9424,9.4009,1.941,2.877,6.1377,2.8745Q632.27,124.5742,635.3777,113.93Z"/><path d="M742.28,59.8564a64.8023,64.8023,0,0,1,17.8692,7.3809l-9.4776,67.2817q-2.1781,15.6923-7.5361,25.3277a33.6889,33.6889,0,0,1-14.917,14.2954q-9.5566,4.6618-24.6289,4.6616a58.3335,58.3335,0,0,1-16.626-2.6416,64.3479,64.3479,0,0,1-16.0039-7.1475l9.7891-19.268q12.2724,6.5267,22.6855,6.5263,6.9932,0,11.4209-3.3408,4.4283-3.3435,5.8272-12.664l1.0879-6.5259q-8.7042,9.7888-20.9776,9.7891-13.3651,0-20.4326-8.9346-7.0722-8.9334-7.07-23.8516a63.51,63.51,0,0,1,5.0508-24.4731,47.8471,47.8471,0,0,1,16.3926-20.5113q11.3407-8.31,28.7461-8.3129A77.4189,77.4189,0,0,1,742.28,59.8564ZM711.825,83.63a31.4106,31.4106,0,0,0-5.8262,12.1977,56.911,56.911,0,0,0-1.7871,13.8291q0,11.5013,7.1474,11.4986,6.3691,0,12.4307-9.0122l4.9727-32.6309a25.5848,25.5848,0,0,0-6.3711-.9326A12.89,12.89,0,0,0,711.825,83.63Z"/><path d="M772.4236,137.1606q-9.6357-9.4759-9.6338-26.4155a69.7348,69.7348,0,0,1,4.7393-25.6387,43.6562,43.6562,0,0,1,15.539-19.8891q10.7975-7.768,27.8906-7.7695t26.8038,9.5561q9.7089,9.5567,9.7119,26.0274a69.7948,69.7948,0,0,1-4.7393,25.6381,44.6358,44.6358,0,0,1-15.5381,20.045q-10.8016,7.9248-28.0468,7.9248Q782.0554,146.6392,772.4236,137.1606ZM813.6,113.93a81.4479,81.4479,0,0,0,3.1084-22.919q0-6.06-2.02-8.7793-2.0214-2.7172-6.2148-2.7192-8.704,0-11.81,10.333a77.6087,77.6087,0,0,0-3.1074,22.4531q0,6.5259,1.9424,9.4009,1.9409,2.877,6.1377,2.8745Q810.493,124.5742,813.6,113.93Z"/><path d="M566.3464,29.3833H534.9587l-3.6925,28.0645h19l-8.8934,67.5927a51.0152,51.0152,0,0,1-2.6416,11.2652,22.0332,22.0332,0,0,1-5.4385,8.0024,29.8908,29.8908,0,0,1-10.5664,6.06l5.5938,22.5307a105.5631,105.5631,0,0,0,20.3554-8.8569,49.8762,49.8762,0,0,0,15.461-14.2954q6.6019-9.17,8.624-23.3076l12.5859-97.0557Z"/><path d="M832.604,196H0L29.2471,30.1318C32.1772,13.5166,48.106,0,64.7559,0H897.36L868.1128,165.8682C865.1831,182.4834,849.2544,196,832.604,196ZM11.918,186H832.604c11.8193,0,23.57-10.0146,25.6611-21.8682L885.4419,10H64.7559c-11.8194,0-23.57,10.0146-25.6607,21.8682Z"/></svg>