<svg width="112" height="30" viewBox="0 0 112 30" fill="none" xmlns="http://www.w3.org/2000/svg">
<rect width="112" height="30" rx="6" fill="white"/>
<path d="M85.4396 8.5625H67.1032V13.5332C67.1032 13.5332 67.0474 15.4526 69.4212 15.4526H80.6293C81.069 15.449 81.5045 15.5376 81.9078 15.7127C82.5337 15.9917 83.2372 16.5597 83.2372 17.7058C83.2372 18.7342 82.739 19.3182 82.2457 19.645C81.8373 19.9088 81.3605 20.0474 80.8744 20.0437H67.1032V21.4388H82.4589C82.4589 21.4388 85.9468 21.2973 85.9468 17.7127C85.9468 15.8901 84.8825 14.9872 83.9248 14.5447C83.3061 14.2605 82.6326 14.1146 81.9517 14.1172H70.8432C70.6582 14.1196 70.4753 14.0762 70.3111 13.9907C70.0739 13.8621 69.8128 13.607 69.8128 13.1047V9.93872H85.4396V8.5625ZM44.0243 20.0387V21.4338H51.8073C52.7373 21.4437 53.6403 21.1168 54.3485 20.514C55.088 19.8863 55.5053 18.9565 55.4826 17.9868V12.0564C55.4745 11.3998 55.7687 10.7745 56.2798 10.3623C56.6379 10.0818 57.0816 9.93235 57.5364 9.93872H64.3219V8.5625H56.2409C56.2409 8.5625 52.753 8.61831 52.753 12.3075V17.8453C52.7592 18.2988 52.6368 18.7449 52.4003 19.1318C52.0522 19.7138 51.4139 20.0627 50.736 20.0417L44.0243 20.0387ZM26.0547 8.5625V9.93872H39.9265C40.3124 9.93544 40.6942 10.0175 41.0447 10.1789C41.5948 10.437 42.2126 10.9682 42.2126 12.0454C42.2126 13.0918 41.5948 13.615 41.0447 13.8741C40.6884 14.0376 40.3005 14.1206 39.9086 14.1172H29.6203C29.0113 14.1115 28.4094 14.2481 27.8624 14.5158C27.0064 14.9453 26.0547 15.9568 26.0547 17.625V21.4119H28.7244V17.642C28.7226 17.3967 28.767 17.1534 28.855 16.9245C29.0752 16.3594 29.6323 15.4526 30.9348 15.4526H41.3087C41.6576 15.4545 42.0051 15.4078 42.3412 15.3141C43.2939 15.043 44.8823 14.2597 44.8823 12.0454C44.8823 8.60435 41.4572 8.5625 41.4572 8.5625H26.0547Z" fill="black"/>
</svg>
