<svg width="112" height="30" viewBox="0 0 112 30" fill="none" xmlns="http://www.w3.org/2000/svg">
<g clip-path="url(#clip0_256_33)">
<rect width="112" height="30" rx="6" fill="#177D3E"/>
<path d="M81.0023 20.2992V9.69922H79.8023V18.3992L73.5023 9.69922H72.4023V20.2992H73.6023V11.7992L79.8023 20.2992H81.0023Z" fill="white"/>
<path d="M66.3008 9.5C63.3008 9.5 61.3008 11.8 61.3008 15C61.3008 18.2 63.4008 20.5 66.3008 20.5C69.3008 20.5 71.3008 18.2 71.3008 15C71.3008 11.8 69.3008 9.5 66.3008 9.5ZM66.3008 19.4C64.0008 19.4 62.5008 17.6 62.5008 15C62.5008 12.4 64.1008 10.6 66.3008 10.6C68.6008 10.6 70.1008 12.4 70.1008 15C70.1008 17.6 68.6008 19.4 66.3008 19.4Z" fill="white"/>
<path d="M82.3008 9.69922V20.2992H89.7008V19.1992H83.5008V15.2992H89.2008V14.2992H83.5008V10.7992H89.6008V9.69922H82.3008Z" fill="white"/>
<path d="M57.6023 9.69922H59.0023L55.3023 14.7992L59.4023 20.2992H58.0023L54.6023 15.6992L51.3023 20.2992H49.9023L53.9023 14.7992L50.3023 9.69922H51.6023L54.6023 13.7992L57.6023 9.69922Z" fill="white"/>
<path d="M46 9.5C43 9.5 41 11.8 41 15C41 18.2 43.1 20.5 46 20.5C49 20.5 51 18.2 51 15C51 11.8 48.9 9.5 46 9.5ZM46 19.4C43.7 19.4 42.2 17.6 42.2 15C42.2 12.4 43.8 10.6 46 10.6C48.2 10.6 49.8 12.4 49.8 15C49.8 17.6 48.2 19.4 46 19.4Z" fill="white"/>
<path d="M22.3008 20.2992H23.7008L27.0008 15.6992L30.4008 20.2992H31.8008L27.7008 14.7992L31.4008 9.69922H30.1008L27.0008 13.7992L24.0008 9.69922H22.7008L26.3008 14.7992L22.3008 20.2992Z" fill="white"/>
<path d="M39.4992 15.1992C39.2992 14.9992 38.9992 14.7992 38.7992 14.6992C39.5992 14.2992 40.0992 13.4992 40.0992 12.5992C40.0992 11.8992 39.8992 9.69922 36.6992 9.69922H32.3992V14.1992H30.8992C30.7992 14.4992 30.2992 15.0992 30.1992 15.2992H32.3992V20.1992H36.6992C38.9992 20.1992 40.4992 18.9992 40.4992 17.0992C40.3992 16.3992 40.0992 15.6992 39.4992 15.1992ZM33.4992 10.7992H36.5992C37.3992 10.7992 38.7992 10.9992 38.7992 12.4992C38.7992 13.5992 37.9992 14.2992 36.5992 14.2992H33.4992V10.7992ZM36.5992 19.1992H33.4992V15.3992H36.5992C37.7992 15.3992 39.1992 15.6992 39.1992 17.1992C39.1992 18.8992 37.5992 19.1992 36.5992 19.1992Z" fill="white"/>
</g>
<defs>
<clipPath id="clip0_256_33">
<rect width="112" height="30" fill="white"/>
</clipPath>
</defs>
</svg>
