<svg width="112" height="30" viewBox="0 0 112 30" fill="none" xmlns="http://www.w3.org/2000/svg">
<g clip-path="url(#clip0_256_2)">
<rect x="0.5" y="0.5" width="111" height="29" rx="5.5" fill="white" stroke="#8B8B8B"/>
<mask id="mask0_256_2" style="mask-type:luminance" maskUnits="userSpaceOnUse" x="30" y="5" width="52" height="20">
<path d="M81.2008 5H30.8008V25H81.2008V5Z" fill="white"/>
</mask>
<g mask="url(#mask0_256_2)">
<path fill-rule="evenodd" clip-rule="evenodd" d="M71.6016 12.7C71.6016 16.1 75.7016 15.6 75.7016 13.2V7.5H71.6016V12.7Z" fill="#009AC7"/>
<path fill-rule="evenodd" clip-rule="evenodd" d="M66.0019 16.3006C65.9019 17.7006 67.1019 19.0006 68.5019 19.0006H78.7019C80.1019 19.1006 81.2019 18.0006 81.3019 16.7006V9.40065C81.3019 8.50065 80.7019 7.60064 79.9019 7.60064H77.6019V13.5006C77.6019 18.0006 69.8019 17.9006 69.8019 13.6006V7.50064H68.1019C67.0019 7.40064 66.1019 8.20064 66.0019 9.20064V16.3006Z" fill="#009AC7"/>
<path d="M52.4023 9.2C52.4023 10.2 53.2023 10.9 54.2023 10.9C55.2023 10.9 56.0023 10.2 56.0023 9.2C56.0023 8.2 55.2023 7.5 54.2023 7.5C53.3023 7.5 52.5023 8.2 52.4023 9.2Z" fill="#8B8B8B"/>
<path d="M55.7992 22.4016V12.6016H52.6992V22.4016H55.7992Z" fill="#8B8B8B"/>
<path d="M58.6016 9.20064C58.6016 10.2006 59.5016 11.0006 60.5016 10.9006C61.4016 10.9006 62.2016 10.1006 62.2016 9.20064C62.2016 8.20064 61.3016 7.40064 60.3016 7.50064C59.4016 7.50064 58.6016 8.30064 58.6016 9.20064Z" fill="#8B8B8B"/>
<path d="M61.9023 22.4016V12.6016H58.9023V22.4016H61.9023Z" fill="#8B8B8B"/>
<path d="M47.9008 8.30117L45.3008 18.7012C45.3008 18.7012 43.3008 10.9012 42.9008 9.80117C42.7008 8.90117 41.9008 8.20117 40.9008 8.20117C39.9008 8.20117 39.1008 8.80117 38.9008 9.80117C38.6008 10.9012 36.6008 18.7012 36.6008 18.7012L34.0008 8.30117H30.8008C30.8008 8.30117 33.9008 19.4012 34.3008 20.7012C34.6008 21.7012 35.5008 22.5012 36.5008 22.5012C37.6008 22.5012 38.5008 21.7012 38.7008 20.7012C39.0008 19.8012 41.0008 12.5012 41.0008 12.5012C41.0008 12.5012 43.0008 19.8012 43.2008 20.7012C43.4008 21.7012 44.3008 22.5012 45.4008 22.5012C46.5008 22.5012 47.4008 21.7012 47.6008 20.7012C48.0008 19.4012 51.1008 8.30117 51.1008 8.30117H47.9008Z" fill="#8B8B8B"/>
</g>
</g>
<defs>
<clipPath id="clip0_256_2">
<rect width="112" height="30" fill="white"/>
</clipPath>
</defs>
</svg>
