<svg width="112" height="30" viewBox="0 0 112 30" fill="none" xmlns="http://www.w3.org/2000/svg">
<g clip-path="url(#clip0_256_20)">
<rect width="112" height="30" rx="6" fill="url(#paint0_linear_256_20)"/>
<mask id="mask0_256_20" style="mask-type:luminance" maskUnits="userSpaceOnUse" x="25" y="5" width="62" height="20">
<path d="M86.4508 5H25.5508V25H86.4508V5Z" fill="white"/>
</mask>
<g mask="url(#mask0_256_20)">
<path d="M64.5531 8.50078H56.5531C54.7531 8.30078 53.0531 9.60078 52.8531 11.4008V18.0008C52.8531 19.2008 52.2531 20.1008 51.0531 20.1008H44.0531C44.0531 20.1008 43.9531 20.1008 43.9531 20.2008V21.4008C43.9531 21.4008 43.9531 21.5008 44.0531 21.5008H51.9531C53.7531 21.7008 55.4531 20.4008 55.6531 18.6008V12.0008C55.6531 10.8008 56.2531 9.90078 57.4531 9.90078H64.5531C64.6531 9.90078 64.6531 9.90078 64.6531 9.80078L64.5531 8.50078Z" fill="white"/>
<path d="M41.0519 8.50039H25.6519C25.5519 8.50039 25.5519 8.50039 25.5519 8.60039V9.80039C25.5519 9.90039 25.5519 9.90039 25.6519 9.90039H40.0519C41.2519 9.90039 41.8519 10.8004 41.8519 12.0004C41.8519 13.2004 41.2519 14.1004 40.0519 14.1004H28.6519C26.8519 14.2004 25.4519 15.7004 25.5519 17.4004V21.3004C25.5519 21.4004 25.5519 21.4004 25.6519 21.4004H28.2519C28.3519 21.4004 28.3519 21.4004 28.3519 21.3004V17.5004C28.3519 16.3004 29.0519 15.4004 30.0519 15.4004H41.0519C42.8519 15.6004 44.4519 14.3004 44.7519 12.5004V11.9004C44.8519 10.1004 43.4519 8.50039 41.6519 8.40039C41.3519 8.50039 41.2519 8.50039 41.0519 8.50039Z" fill="white"/>
<path d="M85.2516 14.8V14.7C86.0516 14 86.4516 13 86.4516 12C86.5516 10.2 85.1516 8.6 83.3516 8.5H67.4516C67.3516 8.5 67.3516 8.5 67.3516 8.6V9.8C67.3516 9.8 67.3516 9.9 67.4516 9.9H81.8516C83.0516 9.9 83.6516 10.8 83.6516 12C83.6516 13.2 83.0516 14.1 81.8516 14.1H67.4516C67.4516 14.1 67.3516 14.1 67.3516 14.2V15.4C67.3516 15.4 67.3516 15.5 67.4516 15.5H81.8516C83.4516 15.5 83.6516 17.1 83.6516 17.9V18C83.6516 19.2 83.0516 20.1 81.8516 20.1H67.4516C67.4516 20.1 67.3516 20.1 67.3516 20.2V21.4C67.3516 21.4 67.3516 21.5 67.4516 21.5H82.8516C84.7516 21.7 86.3516 20.3 86.5516 18.4V17.9C86.4516 16.7 86.0516 15.6 85.2516 14.8Z" fill="white"/>
</g>
</g>
<defs>
<linearGradient id="paint0_linear_256_20" x1="0" y1="15" x2="112" y2="15" gradientUnits="userSpaceOnUse">
<stop stop-color="#0E0E0E"/>
<stop offset="1" stop-color="#828282"/>
</linearGradient>
<clipPath id="clip0_256_20">
<rect width="112" height="30" fill="white"/>
</clipPath>
</defs>
</svg>
