<svg width="112" height="30" viewBox="0 0 112 30" fill="none" xmlns="http://www.w3.org/2000/svg">
<rect width="112" height="30" rx="6" fill="url(#paint0_linear_162_39)"/>
<mask id="mask0_162_39" style="mask-type:luminance" maskUnits="userSpaceOnUse" x="25" y="5" width="62" height="20">
<path d="M86.3996 5H25.5996V25H86.3996V5Z" fill="white"/>
</mask>
<g mask="url(#mask0_162_39)">
<path d="M56.7996 18.3V12C56.7996 10.8 57.3996 9.9 58.5996 9.9H66.1996C66.1996 9.9 66.2996 9.9 66.2996 9.8V8.5H56.9996C55.1996 8.6 53.8996 10.2 53.9996 11.9V17.9C53.9996 19.1 53.3996 20 52.1996 20H44.1996C44.1996 20 44.0996 20 44.0996 20.1V21.3C44.0996 21.3 44.0996 21.4 44.1996 21.4H53.2996C55.0996 21.5 56.6996 20.1 56.7996 18.3Z" fill="white"/>
<path d="M25.6988 21.5H28.3988L28.4988 21.4V17.5C28.4988 16.3 29.1988 15.4 30.1988 15.4H41.1988C42.9988 15.6 44.6988 14.3 44.8988 12.5V11.9C44.9988 10.1 43.6988 8.6 41.8988 8.5H25.5988V9.7C25.5988 9.7 25.5988 9.8 25.6988 9.8H40.0988C41.2988 9.8 41.8988 10.7 41.8988 11.9C41.8988 13.1 41.2988 14 40.0988 14H28.6988C26.8988 14.1 25.4988 15.6 25.5988 17.4V21.4C25.5988 21.4 25.5988 21.5 25.6988 21.5Z" fill="white"/>
<path d="M66.1996 20.1H80.6996C80.6996 20.1 80.7996 20.1 80.7996 20.2V21.4C80.7996 21.4 80.7996 21.5 80.8996 21.5H83.4996C83.4996 21.5 83.5996 21.5 83.5996 21.4V20.2C83.5996 20.2 83.5996 20.1 83.6996 20.1H86.2996C86.2996 20.1 86.3996 20.1 86.3996 20V18.8C86.3996 18.8 86.3996 18.7 86.2996 18.7H83.6996C83.6996 18.7 83.5996 18.7 83.5996 18.6V9.8C83.5996 9.1 83.2996 8.6 82.8996 8.5H82.0996C81.7996 8.6 81.5996 8.7 81.2996 8.8L65.5996 18.5C64.9996 18.9 64.7996 19.3 64.8996 19.6C65.1996 19.9 65.4996 20.1 66.1996 20.1ZM68.4996 18.5L80.5996 11C80.6996 10.9 80.6996 11 80.7996 11V18.6C80.7996 18.6 80.7996 18.7 80.6996 18.7H68.4996C68.3996 18.7 68.2996 18.7 68.2996 18.6C68.3996 18.6 68.3996 18.5 68.4996 18.5Z" fill="white"/>
</g>
<defs>
<linearGradient id="paint0_linear_162_39" x1="0" y1="15" x2="112" y2="15" gradientUnits="userSpaceOnUse">
<stop stop-color="#0F55A5"/>
<stop offset="1" stop-color="#1890CF"/>
</linearGradient>
</defs>
</svg>
