<svg width="112" height="30" viewBox="0 0 112 30" fill="none" xmlns="http://www.w3.org/2000/svg">
<path fill-rule="evenodd" clip-rule="evenodd" d="M112 15C112 6.72178 105.28 0 97.0003 0H14.9998C6.72001 0 0 6.72178 0 15C0 23.2783 6.72001 30.0001 14.9998 30.0001H97.0003C105.28 30.0001 112 23.2783 112 15Z" fill="white"/>
<rect x="0.5" y="0.5" width="111" height="29" rx="5.5" fill="white" stroke="#E60012"/>
<path d="M21.2027 13.1613C22.073 13.1613 22.7785 12.4558 22.7785 11.5855C22.7785 10.7153 22.073 10.0098 21.2027 10.0098C20.3324 10.0098 19.627 10.7153 19.627 11.5855C19.627 12.4558 20.3324 13.1613 21.2027 13.1613Z" fill="#E60012"/>
<path d="M29.738 6.46484H27.1118C27.1118 6.46484 26.9805 6.46484 26.9805 6.59616V23.4042C26.9805 23.5355 26.9805 23.5355 27.1118 23.5355H29.738C32.1017 23.5355 34.0714 21.5658 34.0714 19.2022V10.7982C34.0714 8.43454 32.1017 6.46484 29.738 6.46484ZM30.2633 17.6264C29.3441 17.6264 28.5562 16.8386 28.5562 15.9194C28.5562 15.0002 29.3441 14.2123 30.2633 14.2123C31.1825 14.2123 31.9704 15.0002 31.9704 15.9194C32.1017 16.8386 31.3138 17.6264 30.2633 17.6264Z" fill="#E60012"/>
<path d="M25.1414 6.46484H21.3333C18.9697 6.46484 17 8.43454 17 10.7982V19.0709C17 21.4345 18.9697 23.4042 21.3333 23.4042H25.0101C25.1414 23.4042 25.1414 23.4042 25.1414 23.2729V6.46484ZM23.8283 22.2224H21.3333C19.6263 22.2224 18.3131 20.9093 18.3131 19.2022V10.7982C18.3131 9.0911 19.6263 7.77797 21.3333 7.77797H23.8283V22.2224Z" fill="#E60012"/>
<path d="M51.929 8.43513L54.2926 11.5866H55.3431V6.85938H54.2926V10.0109L51.929 6.85938H51.0098V11.5866H51.929V8.43513Z" fill="#E60012"/>
<path d="M42.2118 17.6255C40.8987 17.3629 40.1108 17.1003 40.1108 16.575C40.1108 15.9185 41.03 15.6558 42.3431 15.6558C43.2623 15.6558 44.1815 15.9185 45.1007 16.3124L45.7572 14.7366C44.7067 14.3427 43.3936 14.0801 42.2118 14.0801C40.2421 14.0801 38.1411 14.9993 38.1411 16.8377C38.1411 18.2821 39.1916 18.9387 41.6865 19.4639C43.5249 19.7265 44.5754 19.9892 44.4441 20.777C44.4441 21.171 44.0502 21.9589 42.0805 21.9589C40.8987 21.9589 39.8481 21.6962 38.7976 21.171L38.0098 22.3528C39.1916 23.0094 40.636 23.272 41.9492 23.272C44.838 23.272 46.2825 22.2215 46.2825 20.3831C46.4138 19.3326 46.0199 18.2821 42.2118 17.6255Z" fill="#E60012"/>
<path d="M39.4548 8.43513L41.8184 11.5866H42.7376V6.85938H41.6871V10.0109L39.4548 6.85938H38.4043V11.5866H39.4548V8.43513Z" fill="#E60012"/>
<path d="M56.5254 20.6457L54.6871 14.0801H52.98L51.1416 20.6457L49.4345 14.0801H47.4648L49.9598 23.1407H52.1921L53.7679 17.1003L55.4749 23.1407H57.7073L60.2022 14.0801H58.2325L56.5254 20.6457Z" fill="#E60012"/>
<path d="M47.3337 6.85938H46.2832V11.5866H47.3337V6.85938Z" fill="#E60012"/>
<path d="M64.4033 14.0801H62.4336V23.1407H64.4033V14.0801Z" fill="#E60012"/>
<path d="M92.5047 6.72656C91.0603 6.72656 90.0098 7.90838 90.0098 9.22151C90.0098 10.666 91.1916 11.7165 92.5047 11.7165C93.9492 11.7165 94.9997 10.5346 94.9997 9.22151C94.9997 7.77707 93.8178 6.72656 92.5047 6.72656ZM92.5047 10.666C91.7168 10.666 91.0603 10.0094 91.0603 9.0902C91.0603 8.30232 91.7168 7.64575 92.5047 7.64575C93.2926 7.64575 93.9492 8.30232 93.9492 9.0902C93.9492 10.0094 93.2926 10.666 92.5047 10.666Z" fill="#E60012"/>
<path d="M92.767 17.6255H88.5649V14.0801H86.7266V23.1407H88.5649V19.4639H92.767V23.1407H94.6053V14.0801H92.767V17.6255Z" fill="#E60012"/>
<path d="M84.3642 6.85938H82.3945V11.5866H84.3642C85.6774 11.5866 86.8592 10.5361 86.8592 9.22301C86.7279 7.90988 85.6774 6.85938 84.3642 6.85938ZM84.3642 10.6675H83.3137V7.77857H84.3642C85.1521 7.77857 85.8087 8.43513 85.8087 9.22301C85.8087 10.0109 85.1521 10.6675 84.3642 10.6675Z" fill="#E60012"/>
<path d="M80.6872 15.7885C81.7377 15.7885 82.6569 16.3138 83.1821 17.233L84.6266 15.9198C83.1821 13.6875 80.1619 13.1623 77.9296 14.6067C75.6973 16.0512 75.172 19.0714 76.6165 21.3037C78.0609 23.536 81.0811 24.0613 83.3134 22.6168C83.8387 22.2229 84.2326 21.8289 84.6266 21.3037L83.1821 19.9906C82.6569 20.9097 81.7377 21.435 80.6872 21.435C79.1114 21.435 77.7983 20.2532 77.7983 18.6774C77.7983 17.1017 78.9801 15.7885 80.5559 15.7885H80.6872Z" fill="#E60012"/>
<path d="M70.0503 10.7988H67.2927V9.61695H69.7876V8.69776H67.2927V7.64725H70.0503V6.85938H66.2422V11.5866H70.0503V10.7988Z" fill="#E60012"/>
<path d="M66.7676 16.0498H69.6565V23.1407H71.4948V16.0498H74.3837V14.0801H66.7676V16.0498Z" fill="#E60012"/>
<path d="M62.8285 6.85938H58.7578V7.77857H60.2023V11.5866H61.2528V7.77857H62.8285V6.85938Z" fill="#E60012"/>
<path d="M78.3236 11.5866V6.85938H77.2731V10.0109L74.9094 6.85938H73.9902V11.5866H74.9094V8.43513L77.2731 11.5866H78.3236Z" fill="#E60012"/>
</svg>
