<svg width="184" height="192" viewBox="0 0 184 192" fill="none" xmlns="http://www.w3.org/2000/svg">
<path d="M144 52V180C144 183.183 142.736 186.235 140.485 188.485C138.235 190.736 135.183 192 132 192C128.817 192 125.765 190.736 123.515 188.485C121.264 186.235 120 183.183 120 180V52C120 48.8174 121.264 45.7652 123.515 43.5147C125.765 41.2643 128.817 40 132 40C135.183 40 138.235 41.2643 140.485 43.5147C142.736 45.7652 144 48.8174 144 52Z" fill="#1C1F30"/>
<path d="M92 80C88.8174 80 85.7652 81.2643 83.5147 83.5147C81.2643 85.7652 80 88.8174 80 92V180C80 183.183 81.2643 186.235 83.5147 188.485C85.7652 190.736 88.8174 192 92 192C95.1826 192 98.2348 190.736 100.485 188.485C102.736 186.235 104 183.183 104 180V92C104 88.8174 102.736 85.7652 100.485 83.5147C98.2348 81.2643 95.1826 80 92 80Z" fill="#1C1F30"/>
<path d="M52 120C48.8174 120 45.7652 121.264 43.5147 123.515C41.2643 125.765 40 128.817 40 132V180C40 183.183 41.2643 186.235 43.5147 188.485C45.7652 190.736 48.8174 192 52 192C55.1826 192 58.2348 190.736 60.4853 188.485C62.7357 186.235 64 183.183 64 180V132C64 128.817 62.7357 125.765 60.4853 123.515C58.2348 121.264 55.1826 120 52 120Z" fill="#1C1F30"/>
<path d="M12 160C8.8174 160 5.76516 161.264 3.51472 163.515C1.26428 165.765 0 168.817 0 172V180C0 183.183 1.26428 186.235 3.51472 188.485C5.76516 190.736 8.8174 192 12 192C15.1826 192 18.2348 190.736 20.4853 188.485C22.7357 186.235 24 183.183 24 180V172C24 168.817 22.7357 165.765 20.4853 163.515C18.2348 161.264 15.1826 160 12 160Z" fill="#1C1F30"/>
<path d="M172 0C168.817 0 165.765 1.26428 163.515 3.51472C161.264 5.76516 160 8.8174 160 12V180C160 183.183 161.264 186.235 163.515 188.485C165.765 190.736 168.817 192 172 192C175.183 192 178.235 190.736 180.485 188.485C182.736 186.235 184 183.183 184 180V12C184 8.8174 182.736 5.76516 180.485 3.51472C178.235 1.26428 175.183 0 172 0Z" fill="#1C1F30"/>
</svg>
